<svg xmlns="http://www.w3.org/2000/svg" width="40.111" height="35.541" viewBox="0 0 40.111 35.541">
  <g id="Path_1" data-name="Path 1" transform="translate(-426.065 -653.687)" fill="none">
    <path d="M426.065,671.138l4.173-9.79,9.854,2.979V653.687h12.057v10.641L462,661.348l4.173,9.79-10.317,3.3,6.492,8.512-9.854,6.278L446.12,680.5l-6.376,8.726-9.854-6.278,6.492-8.512Z" stroke="none"/>
    <path d="M 442.092041015625 655.6868896484375 L 442.092041015625 667.0219116210938 L 431.3749694824219 663.7814331054688 L 428.7660827636719 669.9019775390625 L 439.692138671875 673.3956298828125 L 432.8003845214844 682.4321899414062 L 439.2364807128906 686.5328979492188 L 446.1200256347656 677.1124877929688 L 453.0043029785156 686.532958984375 L 459.4403991699219 682.43212890625 L 452.5491943359375 673.3956298828125 L 463.4747619628906 669.9019775390625 L 460.8657531738281 663.781494140625 L 450.149169921875 667.02197265625 L 450.149169921875 655.6868896484375 L 442.092041015625 655.6868896484375 M 440.092041015625 653.6868896484375 L 452.149169921875 653.6868896484375 L 452.149169921875 664.3277587890625 L 462.002685546875 661.3482666015625 L 466.17578125 671.1380615234375 L 455.858642578125 674.4371337890625 L 462.3502197265625 682.9495849609375 L 452.49658203125 689.2279052734375 L 446.1201171875 680.5023193359375 L 439.7442626953125 689.2279052734375 L 429.8905029296875 682.9495849609375 L 436.382568359375 674.4371337890625 L 426.0650634765625 671.1380615234375 L 430.238037109375 661.3482666015625 L 440.092041015625 664.3277587890625 L 440.092041015625 653.6868896484375 Z" stroke="none" fill="#3fea1e"/>
  </g>
</svg>
