<svg id="Group_59" data-name="Group 59" xmlns="http://www.w3.org/2000/svg" xmlns:xlink="http://www.w3.org/1999/xlink" width="1719.523" height="1133.668" viewBox="0 0 1719.523 1133.668">
  <defs>
    <linearGradient id="linear-gradient" x1="0.5" x2="0.5" y2="1.12" gradientUnits="objectBoundingBox">
      <stop offset="0" stop-color="#ececec"/>
      <stop offset="0.282" stop-color="#7c7c7c"/>
      <stop offset="1" stop-color="#1a1a1a"/>
    </linearGradient>
    <clipPath id="clip-path">
      <rect id="Rectangle_93" data-name="Rectangle 93" width="1719.523" height="1133.668" fill="url(#linear-gradient)"/>
    </clipPath>
  </defs>
  <path id="Path_62" data-name="Path 62" d="M0,.992V34.539H38.579V1131.073h36.9V34.539h38.579V.992Z" transform="translate(0 2.363)" fill="url(#linear-gradient)"/>
  <path id="Path_63" data-name="Path 63" d="M115.466.992V96.6H75.883V.992h-36.9v1130.08h36.9V130.143h39.583V1131.073h36.9V.992Z" transform="translate(92.843 2.363)" fill="url(#linear-gradient)"/>
  <g id="Group_58" data-name="Group 58">
    <g id="Group_57" data-name="Group 57" clip-path="url(#clip-path)">
      <path id="Path_64" data-name="Path 64" d="M80.642.992h54.682C173.561.992,190,18.77,190,55V69.424c0,24.152-7.71,39.586-24.149,46.292v.673c18.451,5.7,24.487,23.148,24.487,49.647v936.521c0,11.406.335,19.793,4.028,28.518H156.791c-2.016-6.043-3.358-9.733-3.358-28.853v-938.2c0-21.805-6.371-28.849-23.141-28.849H117.54v995.9h-36.9Zm50.317,100.636c13.757,0,22.14-6.04,22.14-24.825V58.694c0-16.777-5.7-24.159-18.785-24.159H117.54v67.093Z" transform="translate(192.066 2.363)" fill="url(#linear-gradient)"/>
      <path id="Path_65" data-name="Path 65" d="M119.822,1074.4V59.041C119.822,21.47,139.612,0,175.843,0s56.021,21.47,56.021,59.041V1074.4c0,37.571-19.793,59.041-56.021,59.041s-56.021-21.47-56.021-59.041m75.142,2.347V56.694c0-16.773-7.379-23.148-19.12-23.148S156.72,39.921,156.72,56.694v1020.05c0,16.773,7.382,23.148,19.124,23.148s19.12-6.375,19.12-23.148" transform="translate(285.382)" fill="url(#linear-gradient)"/>
      <path id="Path_66" data-name="Path 66" d="M159.895,1072.031V.992h36.9V1074.713c0,16.773,7.044,22.813,18.785,22.813s18.782-6.04,18.782-22.813V.992h35.562V1072.031c0,37.571-18.789,59.041-55.017,59.041s-55.014-21.47-55.014-59.041" transform="translate(380.824 2.363)" fill="url(#linear-gradient)"/>
      <path id="Path_67" data-name="Path 67" d="M199.373,1070.37V59.041C199.373,21.47,218.158,0,254.39,0S309.4,21.47,309.4,59.041V79.169H274.515V56.691c0-16.77-7.379-23.144-19.12-23.144s-19.12,6.375-19.12,23.144v1016.36c0,16.773,7.379,22.813,19.12,22.813s19.12-6.04,19.12-22.813V139.215H256.067V105.668H309.4v964.7c0,37.571-18.785,59.041-55.014,59.041s-55.017-21.471-55.017-59.041" transform="translate(474.849)" fill="url(#linear-gradient)"/>
      <path id="Path_68" data-name="Path 68" d="M238.95.992h36.9V96.6h39.583V.992h36.9v1130.08h-36.9V130.143H275.851V1131.073h-36.9Z" transform="translate(569.109 2.363)" fill="url(#linear-gradient)"/>
      <path id="Path_69" data-name="Path 69" d="M296.481.992h56.356c36.9,0,55.017,20.463,55.017,58.034V1073.039c0,37.571-18.119,58.033-55.017,58.033H296.481Zm55.687,1096.534c11.741,0,18.785-6.036,18.785-22.81V57.348c0-16.773-7.044-22.813-18.785-22.813H333.379V1097.526Z" transform="translate(706.133 2.363)" fill="url(#linear-gradient)"/>
      <path id="Path_70" data-name="Path 70" d="M336.751.992H437.388V34.536H373.649V96.6h50.658v33.547H373.649v967.383h63.739v33.547H336.751Z" transform="translate(802.045 2.363)" fill="url(#linear-gradient)"/>
      <path id="Path_71" data-name="Path 71" d="M371.092,1072.264v-13.419h34.886v16.1c0,16.773,7.382,22.813,19.124,22.813,11.112,0,18.319-5.407,19.056-20.784.044-.866,0-855.81,0-856.74,0-19.458-7.379-31.869-31.534-53-30.861-27.169-40.926-46.292-40.926-73.13,0-1.39.024-37.5.078-38.842C373.155,20.876,392.163.992,426.7.992c35.9,0,53.671,21.47,53.671,59.041v9.729H445.49V57.683c0-16.77-6.706-23.144-18.451-23.144-10.936,0-17.507,5.532-18.356,19.3-.064,1.015-.088,36.81-.088,37.912,0,17.108,7.717,29.522,31.866,50.655,30.865,27.172,40.591,45.957,40.591,75.142,0,1.833.024,857.67-.064,859.425-1.772,34.869-21.058,54.331-55.555,54.331-36.228,0-54.341-21.47-54.341-59.041" transform="translate(883.834 2.363)" fill="url(#linear-gradient)"/>
      <rect id="Rectangle_92" data-name="Rectangle 92" width="36.898" height="1130.08" transform="translate(1386.012 3.355)" fill="url(#linear-gradient)"/>
      <path id="Path_72" data-name="Path 72" d="M605.627,1.023V1131.1H568.732V249.376L504.581,84.957V1131.069H467.687V.989h36.895v.068l.068-.034,64.083,164.25V1.023Z" transform="translate(1113.895 2.355)" fill="url(#linear-gradient)"/>
      <path id="Path_73" data-name="Path 73" d="M428.106,1074.394V59.041C428.106,21.467,446.891,0,483.123,0s55.014,21.467,55.014,59.041V79.166H503.251V56.691c0-16.773-7.382-23.144-19.124-23.144s-19.12,6.371-19.12,23.144V1077.075c0,16.773,7.379,22.813,19.12,22.813s19.124-6.04,19.124-22.813V139.215H484.8V105.668h53.336v968.725c0,37.571-18.789,59.041-55.014,59.041s-55.017-21.47-55.017-59.041" transform="translate(1019.625)" fill="url(#linear-gradient)"/>
    </g>
  </g>
</svg>
